<mxfile host="65bd71144e">
    <diagram id="Kmo56W6rp6BjnFdbyvLp" name="ページ1">
        <mxGraphModel dx="1397" dy="1738" grid="1" gridSize="10" guides="1" tooltips="1" connect="1" arrows="1" fold="1" page="1" pageScale="1" pageWidth="827" pageHeight="1169" math="0" shadow="0">
            <root>
                <mxCell id="0"/>
                <mxCell id="1" parent="0"/>
                <mxCell id="2" value="&lt;font style=&quot;font-size: 20px;&quot;&gt;クラス&lt;br&gt;&lt;br&gt;&lt;br&gt;&lt;br&gt;&lt;br&gt;&lt;/font&gt;" style="shape=ext;double=1;whiteSpace=wrap;html=1;aspect=fixed;" parent="1" vertex="1">
                    <mxGeometry x="430" y="-60" width="160" height="160" as="geometry"/>
                </mxCell>
                <mxCell id="15" value="Factory" style="whiteSpace=wrap;html=1;aspect=fixed;strokeWidth=0;fontSize=20;" parent="1" vertex="1">
                    <mxGeometry x="1220" width="190" height="190" as="geometry"/>
                </mxCell>
                <mxCell id="16" value="" style="group" parent="1" vertex="1" connectable="0">
                    <mxGeometry x="750" y="200" width="150" height="150" as="geometry"/>
                </mxCell>
                <mxCell id="8" value="" style="whiteSpace=wrap;html=1;aspect=fixed;" parent="16" vertex="1">
                    <mxGeometry width="150" height="150" as="geometry"/>
                </mxCell>
                <mxCell id="13" value="インスタンス" style="text;html=1;strokeColor=none;fillColor=none;align=center;verticalAlign=middle;whiteSpace=wrap;rounded=0;strokeWidth=0;fontSize=20;" parent="16" vertex="1">
                    <mxGeometry x="3.75" y="60" width="142.5" height="30" as="geometry"/>
                </mxCell>
                <mxCell id="22" value="" style="group" parent="1" vertex="1" connectable="0">
                    <mxGeometry x="100" y="200" width="150" height="150" as="geometry"/>
                </mxCell>
                <mxCell id="23" value="" style="group" parent="22" vertex="1" connectable="0">
                    <mxGeometry width="150" height="150" as="geometry"/>
                </mxCell>
                <mxCell id="24" value="" style="whiteSpace=wrap;html=1;aspect=fixed;" parent="23" vertex="1">
                    <mxGeometry width="150" height="150" as="geometry"/>
                </mxCell>
                <mxCell id="25" value="インスタンス" style="text;html=1;strokeColor=none;fillColor=none;align=center;verticalAlign=middle;whiteSpace=wrap;rounded=0;strokeWidth=0;fontSize=20;" parent="23" vertex="1">
                    <mxGeometry x="3.75" y="60" width="142.5" height="30" as="geometry"/>
                </mxCell>
                <mxCell id="27" value="" style="group" parent="1" vertex="1" connectable="0">
                    <mxGeometry x="320" y="200" width="150" height="150" as="geometry"/>
                </mxCell>
                <mxCell id="28" value="" style="group" parent="27" vertex="1" connectable="0">
                    <mxGeometry width="150" height="150" as="geometry"/>
                </mxCell>
                <mxCell id="29" value="" style="whiteSpace=wrap;html=1;aspect=fixed;" parent="28" vertex="1">
                    <mxGeometry width="150" height="150" as="geometry"/>
                </mxCell>
                <mxCell id="30" value="インスタンス" style="text;html=1;strokeColor=none;fillColor=none;align=center;verticalAlign=middle;whiteSpace=wrap;rounded=0;strokeWidth=0;fontSize=20;" parent="28" vertex="1">
                    <mxGeometry x="3.75" y="60" width="142.5" height="30" as="geometry"/>
                </mxCell>
                <mxCell id="34" value="&lt;meta charset=&quot;utf-8&quot;&gt;&lt;span style=&quot;color: rgb(240, 240, 240); font-family: Helvetica; font-size: 20px; font-style: normal; font-variant-ligatures: normal; font-variant-caps: normal; font-weight: 400; letter-spacing: normal; orphans: 2; text-align: center; text-indent: 0px; text-transform: none; widows: 2; word-spacing: 0px; -webkit-text-stroke-width: 0px; background-color: rgb(42, 37, 47); text-decoration-thickness: initial; text-decoration-style: initial; text-decoration-color: initial; float: none; display: inline !important;&quot;&gt;インスタンス&lt;/span&gt;" style="rounded=0;whiteSpace=wrap;html=1;strokeWidth=0;fontSize=20;" parent="1" vertex="1">
                    <mxGeometry x="430" y="40" width="160" height="60" as="geometry"/>
                </mxCell>
                <mxCell id="35" value="シングルトン" style="text;html=1;strokeColor=none;fillColor=none;align=center;verticalAlign=middle;whiteSpace=wrap;rounded=0;strokeWidth=0;fontSize=20;" parent="1" vertex="1">
                    <mxGeometry x="240" y="-180" width="270" height="30" as="geometry"/>
                </mxCell>
                <mxCell id="36" value="ファクトリーメソッド" style="text;html=1;strokeColor=none;fillColor=none;align=center;verticalAlign=middle;whiteSpace=wrap;rounded=0;strokeWidth=0;fontSize=20;" parent="1" vertex="1">
                    <mxGeometry x="1060" y="-180" width="270" height="30" as="geometry"/>
                </mxCell>
                <mxCell id="42" style="edgeStyle=none;html=1;fontSize=20;" parent="1" source="38" edge="1">
                    <mxGeometry relative="1" as="geometry">
                        <mxPoint x="1010.0000000000002" y="125" as="targetPoint"/>
                    </mxGeometry>
                </mxCell>
                <mxCell id="38" value="Student&lt;br&gt;Factory" style="whiteSpace=wrap;html=1;aspect=fixed;strokeWidth=0;fontSize=20;" parent="1" vertex="1">
                    <mxGeometry x="1090" y="60" width="130" height="130" as="geometry"/>
                </mxCell>
                <mxCell id="44" style="edgeStyle=none;html=1;fontSize=20;" parent="1" source="39" edge="1">
                    <mxGeometry relative="1" as="geometry">
                        <mxPoint x="1620" y="125" as="targetPoint"/>
                    </mxGeometry>
                </mxCell>
                <mxCell id="39" value="Teacher&lt;br&gt;Factory&lt;span style=&quot;color: rgba(0, 0, 0, 0); font-family: monospace; font-size: 0px; text-align: start;&quot;&gt;%3CmxGraphModel%3E%3Croot%3E%3CmxCell%20id%3D%220%22%2F%3E%3CmxCell%20id%3D%221%22%20parent%3D%220%22%2F%3E%3CmxCell%20id%3D%222%22%20value%3D%22userFactory%22%20style%3D%22whiteSpace%3Dwrap%3Bhtml%3D1%3Baspect%3Dfixed%3BstrokeWidth%3D0%3BfontSize%3D20%3B%22%20vertex%3D%221%22%20parent%3D%221%22%3E%3CmxGeometry%20x%3D%221090%22%20y%3D%2260%22%20width%3D%22130%22%20height%3D%22130%22%20as%3D%22geometry%22%2F%3E%3C%2FmxCell%3E%3C%2Froot%3E%3C%2FmxGraphModel%3E&lt;/span&gt;" style="whiteSpace=wrap;html=1;aspect=fixed;strokeWidth=0;fontSize=20;" parent="1" vertex="1">
                    <mxGeometry x="1410" y="60" width="130" height="130" as="geometry"/>
                </mxCell>
                <mxCell id="43" style="edgeStyle=none;html=1;fontSize=20;" parent="1" source="40" edge="1">
                    <mxGeometry relative="1" as="geometry">
                        <mxPoint x="1315" y="410" as="targetPoint"/>
                    </mxGeometry>
                </mxCell>
                <mxCell id="40" value="PtaFactory" style="whiteSpace=wrap;html=1;aspect=fixed;strokeWidth=0;fontSize=20;" parent="1" vertex="1">
                    <mxGeometry x="1250" y="190" width="130" height="130" as="geometry"/>
                </mxCell>
                <mxCell id="48" value="&lt;font style=&quot;font-size: 20px;&quot;&gt;Original&lt;br&gt;インスタンス&lt;br&gt;&lt;/font&gt;" style="shape=ext;double=1;whiteSpace=wrap;html=1;aspect=fixed;" vertex="1" parent="1">
                    <mxGeometry x="430" y="440" width="130" height="130" as="geometry"/>
                </mxCell>
                <mxCell id="49" value="" style="endArrow=classic;html=1;exitX=0.5;exitY=0;exitDx=0;exitDy=0;entryX=0;entryY=1;entryDx=0;entryDy=0;" edge="1" parent="1" source="24" target="34">
                    <mxGeometry width="50" height="50" relative="1" as="geometry">
                        <mxPoint x="190" y="140" as="sourcePoint"/>
                        <mxPoint x="510" y="100" as="targetPoint"/>
                    </mxGeometry>
                </mxCell>
                <mxCell id="50" value="" style="endArrow=classic;html=1;exitX=0.533;exitY=0;exitDx=0;exitDy=0;entryX=0.25;entryY=1;entryDx=0;entryDy=0;exitPerimeter=0;" edge="1" parent="1" source="29" target="34">
                    <mxGeometry width="50" height="50" relative="1" as="geometry">
                        <mxPoint x="210" y="220" as="sourcePoint"/>
                        <mxPoint x="465" y="120" as="targetPoint"/>
                    </mxGeometry>
                </mxCell>
                <mxCell id="54" value="" style="group" vertex="1" connectable="0" parent="1">
                    <mxGeometry x="540" y="200" width="150" height="150" as="geometry"/>
                </mxCell>
                <mxCell id="55" value="" style="group" vertex="1" connectable="0" parent="54">
                    <mxGeometry width="150" height="150" as="geometry"/>
                </mxCell>
                <mxCell id="56" value="" style="whiteSpace=wrap;html=1;aspect=fixed;" vertex="1" parent="55">
                    <mxGeometry width="150" height="150" as="geometry"/>
                </mxCell>
                <mxCell id="57" value="インスタンス" style="text;html=1;strokeColor=none;fillColor=none;align=center;verticalAlign=middle;whiteSpace=wrap;rounded=0;strokeWidth=0;fontSize=20;" vertex="1" parent="55">
                    <mxGeometry x="3.75" y="60" width="142.5" height="30" as="geometry"/>
                </mxCell>
                <mxCell id="58" value="" style="endArrow=classic;html=1;exitX=0.471;exitY=0.006;exitDx=0;exitDy=0;entryX=0.75;entryY=1;entryDx=0;entryDy=0;exitPerimeter=0;" edge="1" parent="1" source="56" target="34">
                    <mxGeometry width="50" height="50" relative="1" as="geometry">
                        <mxPoint x="409.95000000000005" y="210" as="sourcePoint"/>
                        <mxPoint x="480" y="110" as="targetPoint"/>
                    </mxGeometry>
                </mxCell>
                <mxCell id="59" value="" style="endArrow=classic;html=1;exitX=0.5;exitY=0;exitDx=0;exitDy=0;entryX=1;entryY=1;entryDx=0;entryDy=0;" edge="1" parent="1" source="8" target="34">
                    <mxGeometry width="50" height="50" relative="1" as="geometry">
                        <mxPoint x="620.6500000000001" y="210.89999999999986" as="sourcePoint"/>
                        <mxPoint x="560" y="110" as="targetPoint"/>
                    </mxGeometry>
                </mxCell>
                <mxCell id="63" value="" style="group" vertex="1" connectable="0" parent="1">
                    <mxGeometry x="270" y="640" width="130" height="160" as="geometry"/>
                </mxCell>
                <mxCell id="60" value="" style="group" vertex="1" connectable="0" parent="63">
                    <mxGeometry x="-10" y="30" width="130" height="130" as="geometry"/>
                </mxCell>
                <mxCell id="67" value="" style="group" vertex="1" connectable="0" parent="60">
                    <mxGeometry width="130" height="130" as="geometry"/>
                </mxCell>
                <mxCell id="61" value="" style="whiteSpace=wrap;html=1;aspect=fixed;" vertex="1" parent="67">
                    <mxGeometry width="130" height="130" as="geometry"/>
                </mxCell>
                <mxCell id="62" value="Copy&lt;br&gt;インスタンス" style="text;html=1;strokeColor=none;fillColor=none;align=center;verticalAlign=middle;whiteSpace=wrap;rounded=0;strokeWidth=0;fontSize=20;" vertex="1" parent="67">
                    <mxGeometry x="3.25" y="52" width="123.5" height="26" as="geometry"/>
                </mxCell>
                <mxCell id="68" value="" style="endArrow=classic;html=1;exitX=0;exitY=1;exitDx=0;exitDy=0;entryX=0.5;entryY=0;entryDx=0;entryDy=0;" edge="1" parent="1" source="48" target="61">
                    <mxGeometry width="50" height="50" relative="1" as="geometry">
                        <mxPoint x="140" y="570" as="sourcePoint"/>
                        <mxPoint x="395" y="470" as="targetPoint"/>
                    </mxGeometry>
                </mxCell>
                <mxCell id="70" value="" style="group" vertex="1" connectable="0" parent="1">
                    <mxGeometry x="430" y="670" width="130" height="130" as="geometry"/>
                </mxCell>
                <mxCell id="71" value="" style="whiteSpace=wrap;html=1;aspect=fixed;" vertex="1" parent="70">
                    <mxGeometry width="130" height="130" as="geometry"/>
                </mxCell>
                <mxCell id="72" value="Copy&lt;br&gt;インスタンス" style="text;html=1;strokeColor=none;fillColor=none;align=center;verticalAlign=middle;whiteSpace=wrap;rounded=0;strokeWidth=0;fontSize=20;" vertex="1" parent="70">
                    <mxGeometry x="3.25" y="52" width="123.5" height="26" as="geometry"/>
                </mxCell>
                <mxCell id="73" value="" style="group" vertex="1" connectable="0" parent="1">
                    <mxGeometry x="590" y="670" width="130" height="130" as="geometry"/>
                </mxCell>
                <mxCell id="74" value="" style="whiteSpace=wrap;html=1;aspect=fixed;" vertex="1" parent="73">
                    <mxGeometry width="130" height="130" as="geometry"/>
                </mxCell>
                <mxCell id="75" value="Copy&lt;br&gt;インスタンス" style="text;html=1;strokeColor=none;fillColor=none;align=center;verticalAlign=middle;whiteSpace=wrap;rounded=0;strokeWidth=0;fontSize=20;" vertex="1" parent="73">
                    <mxGeometry x="3.25" y="52" width="123.5" height="26" as="geometry"/>
                </mxCell>
                <mxCell id="76" value="" style="endArrow=classic;html=1;exitX=0.5;exitY=1;exitDx=0;exitDy=0;entryX=0.5;entryY=0;entryDx=0;entryDy=0;" edge="1" parent="1" source="48" target="71">
                    <mxGeometry width="50" height="50" relative="1" as="geometry">
                        <mxPoint x="472.5" y="580" as="sourcePoint"/>
                        <mxPoint x="445" y="680" as="targetPoint"/>
                    </mxGeometry>
                </mxCell>
                <mxCell id="77" value="" style="endArrow=classic;html=1;exitX=1;exitY=1;exitDx=0;exitDy=0;entryX=0.5;entryY=0;entryDx=0;entryDy=0;" edge="1" parent="1" source="48" target="74">
                    <mxGeometry width="50" height="50" relative="1" as="geometry">
                        <mxPoint x="537.5" y="580" as="sourcePoint"/>
                        <mxPoint x="585" y="680" as="targetPoint"/>
                    </mxGeometry>
                </mxCell>
                <UserObject label="https://blog.ecbeing.tech/entry/2021/01/20/114000" link="https://blog.ecbeing.tech/entry/2021/01/20/114000" id="78">
                    <mxCell style="text;html=1;align=center;verticalAlign=middle;resizable=0;points=[];autosize=1;strokeColor=none;fillColor=none;" vertex="1" parent="1">
                        <mxGeometry x="1151" y="-50" width="290" height="30" as="geometry"/>
                    </mxCell>
                </UserObject>
            </root>
        </mxGraphModel>
    </diagram>
</mxfile>